<?xml version="1.0" standalone="no"?>
<!DOCTYPE svg PUBLIC "-//W3C//DTD SVG 20010904//EN"
 "http://www.w3.org/TR/2001/REC-SVG-20010904/DTD/svg10.dtd">
<svg xmlns="http://www.w3.org/2000/svg" viewBox="0 360 960 280" fill="#f60053" preserveAspectRatio="xMidYMid meet">

<g transform="translate(0.000000,1024.000000) scale(0.100000,-0.100000)"
fill="#f60053" stroke="none">
<path d="M1093 5915 c-102 -31 -180 -103 -231 -212 -25 -53 -27 -68 -27 -178
0 -189 -11 -174 394 -577 186 -186 345 -338 354 -338 8 0 48 23 88 50 40 28
67 50 60 50 -6 0 -23 11 -36 25 -23 22 -25 32 -25 114 l0 89 -96 4 c-91 3 -97
5 -120 31 -22 26 -24 36 -24 143 0 172 19 194 165 194 l72 0 5 84 c7 140 32
159 200 154 102 -3 109 -4 135 -31 26 -25 28 -35 31 -116 l4 -89 83 -4 c68 -2
89 -7 115 -26 l31 -23 19 23 c64 76 88 255 52 375 -53 174 -190 273 -378 273
-133 0 -247 -53 -329 -155 l-40 -50 -40 49 c-48 59 -116 107 -190 135 -66 25
-204 28 -272 6z"/>
<path d="M8529 5700 c0 -3 0 -68 1 -145 l1 -140 -28 27 c-39 37 -73 48 -152
48 -170 0 -270 -124 -259 -324 7 -134 55 -216 153 -262 82 -39 193 -29 255 22
l30 26 0 -31 0 -31 79 0 79 0 -1 404 -2 405 -78 3 c-42 2 -77 1 -78 -2z m-54
-363 c78 -78 72 -251 -11 -316 -39 -31 -122 -26 -159 9 -36 34 -59 120 -51
188 13 108 53 151 140 152 41 0 53 -5 81 -33z"/>
<path d="M4500 5635 l0 -65 80 0 80 0 0 65 0 65 -80 0 -80 0 0 -65z"/>
<path d="M6600 5690 c1 -3 -1 -184 -3 -402 l-3 -398 78 0 78 0 -5 283 c-5 233
-4 279 7 265 7 -10 90 -137 183 -283 l170 -265 81 0 82 0 -5 398 c-3 218 -6
398 -7 398 0 1 -34 4 -74 6 l-73 4 3 -278 c2 -153 1 -278 -2 -278 -3 0 -17 23
-33 50 -15 28 -93 153 -174 278 l-146 227 -78 0 c-44 0 -79 -2 -79 -5z"/>
<path d="M2720 5290 l0 -400 80 0 80 0 0 134 0 134 128 4 c136 5 174 16 231
64 58 48 76 97 76 204 0 86 -3 100 -28 142 -59 101 -111 118 -368 118 l-199 0
0 -400z m378 260 c84 -52 79 -202 -9 -247 -14 -7 -63 -13 -116 -13 l-93 0 0
140 0 140 93 0 c75 0 98 -4 125 -20z"/>
<path d="M4155 5646 l-60 -12 -3 -72 -3 -72 -49 0 -50 0 0 -60 0 -60 49 0 49
0 4 -194 c3 -179 5 -197 24 -223 39 -52 80 -68 176 -68 48 0 91 5 96 10 5 6
12 38 16 72 l6 62 -26 -9 c-42 -16 -99 -12 -117 8 -14 16 -17 44 -17 180 l0
162 68 0 69 0 2 60 2 60 -70 0 -71 0 0 85 c0 96 8 91 -95 71z"/>
<path d="M6295 5653 c-11 -2 -43 -9 -71 -14 -29 -5 -51 -15 -51 -22 0 -7 -1
-38 -1 -69 l-2 -58 -49 0 -49 0 2 -60 1 -60 46 0 47 0 4 -188 c3 -165 6 -192
24 -222 33 -57 75 -75 176 -75 48 0 91 5 96 10 5 6 13 38 16 73 7 61 6 63 -13
53 -28 -16 -94 -14 -117 3 -17 13 -19 30 -22 180 l-3 166 70 0 71 0 0 60 0 60
-70 0 -70 0 0 85 c0 47 -3 84 -7 84 -5 -1 -17 -3 -28 -6z"/>
<path d="M3535 5475 c-67 -26 -115 -85 -115 -142 0 -28 0 -28 65 -27 59 2 67
5 91 33 22 26 33 31 70 31 58 0 94 -33 94 -85 l0 -35 -88 0 c-118 0 -180 -19
-225 -69 -40 -44 -54 -101 -42 -172 22 -129 223 -175 329 -76 l35 33 13 -25
c24 -44 144 -79 184 -53 7 4 15 33 19 65 7 58 7 58 -17 52 -45 -11 -52 12 -58
194 -5 160 -6 169 -32 208 -38 58 -85 77 -193 80 -61 2 -103 -2 -130 -12z
m202 -355 c-6 -50 -28 -85 -70 -111 -37 -23 -95 -20 -114 8 -14 18 -17 71 -7
98 11 27 63 44 133 45 l64 0 -6 -40z"/>
<path d="M4951 5473 c-62 -22 -134 -97 -155 -160 -20 -60 -24 -171 -7 -230 32
-114 128 -190 253 -200 117 -10 230 43 274 128 25 50 21 54 -61 54 -41 0 -75
-3 -75 -8 0 -17 -67 -47 -105 -47 -69 0 -118 40 -131 108 l-6 32 205 0 206 0
-6 68 c-11 123 -48 191 -130 239 -39 23 -60 27 -132 30 -61 2 -99 -2 -130 -14z
m196 -125 c18 -14 43 -69 43 -93 0 -13 -19 -15 -125 -15 -119 0 -125 1 -125
20 0 26 23 72 44 90 37 30 126 29 163 -2z"/>
<path d="M5682 5473 c-18 -9 -42 -27 -52 -41 l-20 -25 0 37 0 36 -77 0 -78 0
-1 -295 -1 -295 78 0 79 0 0 178 c0 97 5 194 10 214 15 53 61 88 115 88 100 0
105 -14 105 -275 l0 -205 81 0 80 0 -3 233 c-3 226 -4 233 -28 276 -36 64 -92
91 -184 91 -45 0 -83 -6 -104 -17z"/>
<path d="M7600 5481 c-71 -23 -132 -75 -166 -141 -22 -43 -31 -197 -15 -257
32 -116 128 -191 259 -201 130 -9 241 50 293 155 19 40 23 64 24 148 0 114
-17 166 -75 223 -57 57 -104 75 -205 79 -49 1 -101 -1 -115 -6z m185 -143 c29
-27 37 -44 45 -90 10 -67 -1 -155 -24 -191 -22 -33 -58 -50 -106 -50 -79 0
-121 55 -128 165 -8 125 40 198 129 198 42 0 55 -5 84 -32z"/>
<path d="M8940 5458 c-110 -57 -160 -163 -146 -307 12 -115 60 -192 150 -239
44 -23 63 -27 141 -27 81 0 95 3 145 30 52 29 101 84 114 130 5 19 1 20 -69
18 -65 -1 -80 -5 -106 -27 -36 -30 -102 -35 -148 -11 -27 13 -71 85 -71 113 0
9 54 12 206 12 l207 0 -6 74 c-13 172 -99 257 -267 264 -80 4 -89 2 -150 -30z
m233 -128 c17 -19 27 -42 27 -60 l0 -30 -125 0 c-140 0 -141 0 -106 68 39 77
144 89 204 22z"/>
<path d="M4504 5185 l-1 -295 81 0 81 0 0 295 0 295 -80 0 -80 0 -1 -295z"/>
<path d="M1780 5330 l0 -120 -125 0 -125 0 0 -85 0 -85 125 0 125 0 0 -125 0
-125 75 0 75 0 0 125 0 125 125 0 126 0 -3 83 -3 82 -122 3 -123 3 0 119 0
120 -75 0 -75 0 0 -120z"/>
</g>
</svg>
